<?xml version="1.0" standalone="no"?>
<!DOCTYPE svg PUBLIC "-//W3C//DTD SVG 20010904//EN"
 "http://www.w3.org/TR/2001/REC-SVG-20010904/DTD/svg10.dtd">
<svg version="1.0" xmlns="http://www.w3.org/2000/svg"
 width="1631.000000pt" height="1631.000000pt" viewBox="0 0 1631.000000 1631.000000"
 preserveAspectRatio="xMidYMid meet">
<metadata>
Created by potrace 1.14, written by Peter Selinger 2001-2017
</metadata>
<g transform="translate(0.000000,1631.000000) scale(0.100000,-0.100000)"
fill="#000000" stroke="none">
<path d="M2727 16154 c-1 -1 -52 -5 -114 -9 -62 -3 -120 -8 -130 -9 -10 -2
-46 -7 -80 -11 -217 -25 -383 -56 -417 -78 -50 -33 -209 -257 -325 -460 -198
-344 -368 -825 -437 -1232 -29 -178 -33 -200 -40 -274 -3 -31 -7 -69 -9 -86
-22 -172 -22 -709 0 -820 3 -11 7 -47 10 -79 8 -85 13 -115 42 -266 63 -332
152 -598 294 -876 l76 -152 -59 -98 c-85 -144 -245 -468 -308 -624 -91 -231
-198 -569 -224 -710 -2 -14 -10 -47 -16 -75 -7 -27 -14 -63 -17 -80 -2 -16 -6
-41 -9 -55 -5 -29 -23 -143 -29 -180 -2 -14 -7 -54 -10 -90 -4 -36 -9 -73 -11
-83 -23 -123 -22 -793 1 -887 2 -8 7 -51 11 -95 3 -44 8 -82 9 -85 2 -3 6 -29
10 -59 4 -30 9 -63 11 -75 2 -12 11 -64 20 -116 49 -288 181 -722 321 -1050
139 -327 403 -797 576 -1025 4 -5 46 -62 93 -125 77 -102 199 -256 214 -270 3
-3 36 -41 75 -85 234 -268 499 -520 805 -764 l164 -131 2 -178 c0 -97 4 -197
8 -222 15 -85 45 -209 77 -305 17 -53 30 -97 28 -98 -2 -1 -30 -16 -61 -32
-74 -38 -192 -126 -271 -201 -307 -291 -514 -699 -526 -1038 -1 -12 -11 0 -27
30 -61 115 -143 224 -244 324 -149 149 -266 213 -465 257 -49 10 -219 3 -282
-12 -334 -82 -601 -384 -659 -745 -17 -101 -8 -286 17 -385 94 -369 370 -692
828 -969 260 -158 425 -215 726 -251 64 -8 280 -8 365 0 36 4 101 13 145 21
206 38 246 42 370 40 269 -6 418 -79 585 -286 73 -91 221 -232 303 -288 100
-69 224 -127 318 -149 55 -13 90 -28 139 -63 172 -122 357 -170 557 -145 72
10 210 58 283 100 56 32 75 38 135 40 90 3 340 57 471 100 104 34 249 99 318
143 l38 24 36 -34 c20 -18 39 -35 42 -38 158 -159 555 -358 826 -415 11 -2 48
-10 84 -19 36 -8 79 -17 95 -20 17 -3 41 -8 55 -11 49 -10 175 -27 305 -40
294 -29 753 -23 1040 15 39 5 90 12 115 15 25 3 56 8 70 10 14 3 41 7 60 9 33
5 236 40 290 51 14 3 50 9 80 15 155 28 208 40 395 86 445 111 749 225 1100
414 233 125 492 348 692 595 26 33 54 66 61 73 16 18 174 256 203 307 60 106
161 329 175 385 2 8 11 42 20 75 67 246 57 529 -25 726 -87 209 -256 350 -421
353 -80 1 -240 -12 -294 -24 -23 -4 -59 -11 -80 -14 -144 -22 -355 -96 -551
-191 -174 -85 -316 -173 -488 -302 -99 -74 -316 -249 -337 -272 -3 -3 -30 -28
-60 -55 -72 -65 -173 -160 -404 -380 -287 -274 -274 -262 -421 -392 -374 -329
-693 -507 -1015 -564 -80 -14 -140 -18 -250 -15 -80 2 -158 6 -175 10 -94 19
-199 46 -231 60 -50 21 -150 93 -214 155 l-52 51 56 57 c79 81 96 108 216 356
140 288 271 585 355 804 15 37 30 76 35 87 45 99 185 475 213 570 37 124 81
317 91 394 3 25 9 48 13 52 5 4 35 10 68 13 33 4 123 16 200 27 77 12 149 22
160 24 11 1 48 8 82 14 35 6 74 13 88 15 14 3 33 7 43 10 9 3 33 7 52 10 19 3
50 10 68 15 18 5 35 10 37 10 66 -2 742 202 900 271 11 4 92 39 180 76 1046
439 1917 1166 2465 2057 260 423 434 841 554 1332 24 97 30 125 41 183 3 15 8
38 10 52 3 14 7 36 9 50 27 168 28 172 60 185 17 6 65 24 106 40 174 67 427
208 605 338 722 525 1308 1423 1555 2382 41 160 84 375 95 480 4 33 8 71 11
85 23 147 24 586 1 640 -17 39 -262 293 -397 412 -92 81 -246 203 -325 258
-28 19 -51 38 -53 42 -2 4 -7 8 -11 8 -5 0 -41 22 -82 48 -375 244 -825 415
-1239 468 -25 3 -56 7 -70 10 -53 8 -241 18 -360 18 -125 0 -368 -12 -379 -18
-3 -2 -33 -7 -66 -10 -56 -6 -85 -10 -145 -21 -14 -3 -43 -8 -65 -11 -32 -4
-248 -51 -315 -68 -145 -37 -222 -60 -420 -126 -129 -43 -308 -107 -397 -143
l-161 -64 -44 35 c-173 138 -436 325 -604 429 -683 423 -1385 711 -2184 897
-58 13 -143 31 -190 40 -47 9 -96 18 -110 21 -50 10 -196 34 -245 41 -27 3
-59 8 -70 10 -11 2 -85 11 -165 19 -80 9 -158 17 -175 20 -16 2 -79 7 -140 10
-60 4 -137 8 -170 10 -75 5 -549 5 -630 0 -33 -2 -109 -6 -170 -10 -60 -3
-122 -8 -137 -11 -25 -4 -36 8 -134 143 -393 543 -811 950 -1259 1228 -370
230 -794 382 -1225 440 -25 3 -56 8 -70 10 -84 13 -552 29 -563 19z m468 -187
c11 -2 52 -8 90 -12 166 -17 403 -68 585 -127 325 -106 669 -296 970 -539 419
-336 805 -805 1239 -1504 139 -224 140 -225 191 -225 64 0 103 55 80 115 -11
29 -104 183 -217 358 -35 54 -63 102 -63 107 0 5 8 9 18 9 9 -1 89 3 177 7
310 16 669 8 980 -20 65 -6 115 -12 190 -21 17 -2 53 -7 80 -10 28 -4 88 -13
135 -20 47 -8 103 -17 125 -20 22 -4 47 -8 55 -10 8 -2 38 -7 65 -11 28 -3 53
-8 56 -10 4 -2 62 -15 130 -30 928 -195 1861 -617 2626 -1188 l121 -91 -41
-19 c-191 -86 -247 -117 -249 -139 0 -12 -2 -29 -3 -37 -3 -29 25 -68 55 -78
36 -13 51 -8 230 73 335 152 715 297 990 379 207 61 536 136 670 152 30 3 69
8 85 10 215 26 603 26 765 0 14 -2 48 -8 75 -12 28 -4 52 -8 55 -9 3 -1 25 -5
50 -9 495 -87 1026 -360 1465 -751 112 -99 269 -254 324 -319 l42 -49 -5 -241
c-2 -132 -7 -252 -10 -266 -2 -14 -7 -47 -11 -75 -3 -27 -11 -79 -16 -115 -6
-36 -12 -74 -14 -85 -7 -50 -39 -197 -64 -295 -38 -154 -139 -455 -182 -544
-10 -22 -19 -43 -19 -48 0 -16 -137 -300 -199 -413 -450 -816 -1092 -1409
-1771 -1636 -67 -22 -169 -51 -228 -64 -85 -19 -112 -30 -129 -50 -33 -37 -30
-81 7 -115 32 -30 68 -32 153 -9 22 6 42 8 45 4 8 -7 -31 -215 -69 -375 -190
-783 -612 -1521 -1210 -2119 -226 -226 -542 -484 -794 -646 -49 -32 -102 -67
-118 -77 -183 -125 -647 -359 -917 -463 -52 -21 -108 -43 -125 -50 -152 -65
-708 -225 -900 -259 -16 -3 -41 -8 -55 -11 -71 -14 -251 -45 -290 -50 -25 -3
-58 -7 -75 -10 -16 -3 -43 -7 -60 -10 -16 -2 -59 -7 -95 -11 l-65 -6 0 204
c-1 111 -4 226 -8 253 -3 28 -9 68 -12 91 -2 22 -16 85 -30 138 -65 260 -201
530 -365 731 -330 402 -738 549 -1087 390 -220 -100 -451 -374 -526 -625 -46
-153 -61 -266 -62 -455 0 -222 22 -363 92 -580 27 -84 108 -265 118 -265 9 0
96 46 126 67 l26 18 -32 67 c-63 129 -116 296 -140 443 -11 65 -15 375 -5 435
4 30 11 75 15 98 10 65 44 170 75 232 71 138 215 303 322 368 102 61 160 76
288 76 99 0 125 -3 188 -26 321 -118 625 -484 772 -931 31 -94 34 -103 50
-202 32 -197 30 -479 -6 -710 -25 -167 -90 -422 -139 -550 -56 -146 -197 -502
-205 -520 -5 -11 -30 -72 -56 -135 -25 -63 -55 -135 -66 -160 -11 -25 -26 -58
-33 -75 -84 -197 -284 -604 -320 -650 -37 -49 -344 -357 -430 -432 -44 -38
-114 -95 -155 -126 -41 -32 -79 -61 -85 -65 -127 -97 -407 -230 -567 -268 -78
-18 -130 -25 -127 -17 2 4 26 42 53 83 102 153 175 331 217 527 28 127 34 386
13 518 -51 318 -208 592 -427 743 -52 36 -183 98 -226 107 -9 2 -34 8 -57 13
-83 19 -213 14 -315 -12 -165 -42 -295 -119 -429 -255 -203 -207 -333 -492
-375 -826 -6 -46 -6 -265 -1 -310 19 -156 58 -295 117 -423 l38 -83 -37 22
c-114 68 -229 175 -363 334 -94 114 -100 119 -189 178 -204 137 -522 177 -845
108 -86 -18 -107 -21 -200 -28 -383 -28 -637 25 -922 194 -541 318 -813 674
-822 1070 -9 408 312 760 682 747 89 -3 194 -36 282 -87 88 -51 224 -186 293
-292 63 -96 149 -270 188 -380 15 -44 28 -81 29 -82 0 -1 37 9 80 22 l80 25 0
177 c0 255 33 390 151 630 208 423 577 736 994 843 l45 12 -40 15 c-25 9 -77
14 -142 14 l-102 0 -21 56 c-35 94 -63 202 -75 290 -4 26 -9 59 -11 73 -6 40
-6 221 1 270 47 354 253 641 550 767 94 40 161 55 257 58 298 8 508 -195 544
-525 21 -196 -6 -418 -82 -675 -14 -49 -27 -96 -28 -104 -1 -9 28 -23 79 -41
l80 -27 12 36 c19 53 71 248 83 311 15 79 21 112 26 140 10 53 13 357 4 405
-4 28 -11 64 -14 80 -10 53 -47 158 -76 215 -40 76 -60 104 -120 166 -320 329
-917 232 -1257 -206 -62 -80 -137 -214 -166 -297 l-22 -62 -25 16 c-66 43
-338 273 -469 398 -173 165 -360 361 -467 490 -23 28 -64 77 -92 111 -27 33
-91 116 -141 185 -50 68 -94 129 -99 134 -9 12 -81 122 -144 220 -225 351
-440 824 -568 1247 -51 169 -130 517 -146 643 -3 28 -8 52 -9 55 -2 3 -7 42
-10 85 -4 44 -8 82 -10 85 -2 3 -7 55 -11 115 -16 202 -9 708 11 825 2 14 7
48 10 75 5 46 13 107 20 145 7 42 19 106 20 110 1 3 5 25 9 50 5 25 10 52 11
60 26 136 139 522 184 625 5 11 26 63 46 115 45 114 196 422 263 537 l48 82
66 -87 c37 -48 102 -124 145 -170 62 -66 85 -84 113 -88 45 -7 87 23 96 71 7
41 6 43 -88 146 -198 218 -344 452 -465 749 -46 112 -114 320 -128 390 -2 8
-10 42 -18 75 -9 33 -21 87 -26 120 -6 33 -13 71 -16 85 -3 13 -7 42 -10 65
-3 22 -8 57 -11 77 -6 42 -11 84 -21 213 -15 170 -7 629 12 748 2 12 6 45 9
72 4 28 9 61 11 75 3 14 7 41 10 60 4 31 21 127 39 215 98 480 324 999 589
1352 63 84 80 95 157 107 19 3 49 8 65 11 64 11 92 15 155 21 36 3 67 8 70 9
3 2 52 6 110 10 58 4 107 9 109 11 6 5 492 -3 516 -9z m8588 -12871 c32 -19
67 -46 78 -58 109 -127 151 -261 151 -483 1 -151 -19 -254 -77 -411 -109 -290
-281 -550 -540 -810 -218 -220 -329 -305 -565 -432 -344 -185 -894 -359 -1410
-447 -19 -3 -54 -10 -78 -16 -23 -5 -59 -12 -80 -15 -20 -2 -59 -9 -87 -14
-119 -22 -401 -58 -521 -67 -233 -17 -735 -5 -909 21 -22 3 -56 8 -75 11 -63
8 -105 15 -135 20 -290 56 -540 144 -710 250 -22 13 -53 32 -70 41 -16 9 -32
20 -35 23 -3 3 -21 18 -40 33 -19 14 -55 45 -79 68 l-44 41 22 16 c69 47 187
148 322 274 54 50 99 91 102 92 2 1 33 -23 68 -54 88 -78 116 -100 176 -137
50 -32 143 -70 193 -79 14 -2 41 -8 60 -13 19 -5 58 -11 85 -15 28 -4 66 -9
85 -11 51 -8 256 -7 320 0 347 42 674 196 1050 498 63 50 120 97 126 102 6 6
38 35 71 64 33 29 83 74 111 100 60 57 357 339 422 402 470 450 769 678 1098
836 170 82 410 158 567 181 22 3 60 8 84 12 25 3 81 7 125 9 77 3 84 1 139
-32z m-6483 -586 c177 -32 363 -200 463 -420 167 -367 121 -863 -111 -1203
-113 -166 -284 -307 -417 -342 -16 -5 -34 -10 -40 -12 -96 -32 -244 -21 -363
29 -227 94 -394 342 -452 670 -26 146 -15 377 25 529 101 386 348 675 635 743
103 24 151 25 260 6z"/>
<path d="M2680 14939 c-111 -15 -104 -10 -158 -122 -28 -56 -60 -127 -72 -157
-11 -30 -25 -64 -30 -75 -21 -45 -74 -220 -110 -361 -35 -139 -45 -183 -55
-254 -2 -14 -6 -38 -9 -55 -2 -16 -8 -52 -12 -80 -3 -27 -8 -58 -10 -69 -22
-121 -22 -426 0 -526 10 -41 19 -83 21 -93 21 -96 125 -378 197 -536 71 -157
132 -281 137 -281 3 0 26 19 51 41 84 77 125 114 205 184 44 39 82 73 85 76 4
4 138 115 215 178 325 263 707 479 1085 613 172 61 479 144 607 164 21 3 41 7
45 7 4 1 14 -7 22 -18 15 -19 15 -18 16 22 0 57 -77 211 -199 393 -163 244
-396 464 -661 624 -191 115 -454 227 -614 261 -10 3 -33 9 -50 14 -17 6 -44
12 -61 15 -16 2 -55 9 -85 15 -30 5 -71 13 -90 16 -59 10 -401 13 -470 4z
m390 -33 c166 -15 397 -68 567 -132 433 -162 786 -436 1046 -811 31 -45 57
-85 57 -88 0 -4 9 -20 21 -36 23 -33 110 -202 105 -206 -1 -2 -25 -7 -52 -13
-27 -5 -60 -12 -74 -15 -14 -3 -36 -7 -50 -10 -25 -4 -177 -43 -255 -65 -360
-100 -752 -286 -1075 -508 -89 -62 -344 -257 -380 -291 -9 -9 -40 -36 -70 -60
-29 -25 -58 -50 -64 -55 -6 -6 -47 -43 -90 -81 -44 -39 -98 -87 -120 -107 -23
-21 -44 -38 -47 -38 -6 0 -34 59 -116 245 -24 55 -53 119 -64 142 -10 24 -19
49 -19 56 0 7 -4 17 -8 23 -21 23 -93 258 -121 395 -32 156 -20 414 35 744 41
244 142 565 241 768 24 48 43 91 43 96 0 13 26 31 51 36 13 3 62 8 109 11 47
4 86 8 87 9 5 3 167 -3 243 -9z"/>
<path d="M12767 12024 c-1 -1 -45 -4 -97 -8 -314 -23 -578 -107 -895 -286 -54
-30 -64 -39 -81 -72 -15 -29 -15 -29 7 -17 26 14 40 1 189 -181 25 -30 51 -61
58 -69 7 -7 51 -64 96 -125 346 -465 553 -926 706 -1571 12 -49 28 -119 37
-154 8 -36 17 -74 19 -85 6 -36 45 -209 55 -249 l10 -38 42 23 c23 13 44 26
45 31 2 4 8 7 14 7 17 0 352 210 433 272 246 189 371 315 453 458 11 19 48 85
83 145 179 314 348 767 394 1055 3 19 8 46 10 60 10 46 13 65 20 118 l7 54
-73 70 c-105 99 -318 258 -347 258 -6 0 -12 4 -14 8 -4 10 -187 100 -268 132
-153 61 -346 114 -495 136 -22 3 -51 8 -65 10 -49 8 -337 23 -343 18z m288
-48 c122 -15 145 -19 235 -38 378 -79 743 -269 998 -518 49 -47 49 -43 17
-220 -9 -47 -18 -94 -19 -105 -9 -50 -48 -191 -91 -324 -73 -224 -192 -487
-317 -701 -11 -19 -32 -55 -46 -80 -99 -179 -374 -426 -687 -617 -109 -66
-247 -145 -249 -142 -2 2 -13 49 -25 104 -147 672 -247 986 -431 1360 -92 187
-242 437 -323 540 -4 6 -35 46 -68 90 -70 92 -115 146 -218 263 -40 45 -72 85
-70 87 3 2 31 20 64 40 233 140 539 238 815 261 41 3 76 7 77 8 5 5 291 -2
338 -8z"/>
<path d="M3425 10109 c-22 -4 -57 -11 -78 -14 -61 -10 -187 -54 -262 -93 -65
-34 -175 -102 -202 -126 -188 -172 -285 -312 -351 -511 -96 -287 -67 -615 78
-880 169 -307 494 -527 834 -563 84 -9 228 -8 286 2 89 14 142 26 160 36 11 6
20 9 20 6 0 -3 28 7 62 21 338 137 574 397 667 735 30 110 33 131 36 283 5
260 -65 471 -225 684 -155 204 -388 351 -645 407 -87 18 -313 26 -380 13z
m842 -420 c60 -29 112 -79 143 -139 17 -31 38 -119 34 -142 -1 -9 -5 -35 -8
-57 -21 -150 -173 -267 -331 -255 -222 16 -355 244 -262 447 73 161 261 225
424 146z"/>
<path d="M9627 8654 c-1 -1 -33 -5 -71 -9 -179 -18 -378 -95 -524 -205 -541
-404 -601 -1190 -127 -1666 143 -142 307 -236 512 -291 84 -22 120 -26 248
-27 212 -1 323 20 483 95 506 235 754 802 586 1340 -55 177 -171 355 -315 484
-42 38 -146 115 -155 115 -3 0 -19 10 -36 21 -58 42 -225 103 -338 124 -65 13
-255 26 -263 19z m726 -418 c82 -34 129 -79 167 -160 57 -120 38 -242 -51
-340 -71 -78 -124 -101 -234 -101 -78 0 -97 4 -140 27 -114 60 -169 152 -169
283 -1 65 4 90 25 135 71 150 249 220 402 156z"/>
<path d="M6590 8394 c-82 -35 -122 -103 -122 -203 0 -59 5 -73 72 -204 47 -93
70 -147 66 -161 -16 -66 -163 -178 -286 -220 -91 -30 -152 -40 -250 -38 -271
3 -524 147 -626 358 -19 39 -34 76 -34 81 0 6 -13 16 -30 23 -25 10 -34 10
-54 -4 -36 -23 -39 -47 -16 -109 48 -128 161 -259 297 -344 46 -28 72 -51 69
-59 -16 -41 -38 -181 -41 -255 -11 -334 152 -620 428 -749 363 -170 840 -27
1115 335 25 33 46 61 46 62 1 1 35 -6 76 -16 113 -26 262 -21 369 14 119 38
153 78 115 134 -19 27 -45 25 -134 -7 -396 -144 -904 209 -913 635 l-2 77 164
73 c90 40 178 84 196 97 78 60 106 167 65 251 -46 95 -147 128 -281 91 -21 -6
-27 -3 -36 17 -20 42 -76 99 -118 118 -48 22 -88 23 -135 3z m128 -38 c39 -21
67 -54 95 -113 13 -30 28 -49 33 -44 19 17 101 38 145 36 151 -6 203 -174 88
-284 -17 -16 -105 -61 -206 -105 -162 -71 -177 -76 -187 -59 -53 87 -177 347
-182 381 -11 75 24 154 84 186 36 18 96 19 130 2z m-83 -863 l5 -33 -48 18
c-75 29 -112 46 -112 53 0 4 22 21 49 39 27 17 55 38 63 47 11 14 15 9 25 -38
7 -30 15 -69 18 -86z m-106 -29 c64 -26 121 -50 126 -55 6 -4 19 -25 30 -46
78 -149 215 -293 357 -373 70 -39 70 -38 -46 -155 -174 -176 -363 -262 -586
-269 -306 -10 -550 179 -628 485 -28 109 -23 296 9 397 10 30 14 33 38 27 179
-46 413 -39 534 15 23 10 44 19 46 19 2 1 56 -20 120 -45z"/>
</g>
</svg>
