<svg width="70" height="70" fill="none" xmlns="http://www.w3.org/2000/svg"><path d="M46.667 19.833h14l-14-14v14zm-9.334 33.834c0 5.799-4.7 10.5-10.5 10.5-5.799 0-10.5-4.701-10.5-10.5 0-5.8 4.701-10.5 10.5-10.5 5.8 0 10.5 4.7 10.5 10.5zM3.5 38.5h25.667a2.334 2.334 0 002.333-2.333V3.5a2.333 2.333 0 00-2.333-2.333H3.5A2.333 2.333 0 001.167 3.5v32.667A2.333 2.333 0 003.5 38.5zm7-4.667c0 .645-.522 1.167-1.167 1.167H7a1.167 1.167 0 01-1.167-1.167V31.5c0-.644.523-1.167 1.167-1.167h2.333c.645 0 1.167.523 1.167 1.167v2.333zm0-8.166c0 .644-.522 1.166-1.167 1.166H7a1.167 1.167 0 01-1.167-1.166v-2.334c0-.644.523-1.166 1.167-1.166h2.333c.645 0 1.167.522 1.167 1.166v2.334zm0-8.167c0 .644-.522 1.167-1.167 1.167H7A1.167 1.167 0 015.833 17.5v-2.333C5.833 14.522 6.356 14 7 14h2.333c.645 0 1.167.522 1.167 1.167V17.5zm8.167 16.333c0 .645-.523 1.167-1.167 1.167h-2.333A1.167 1.167 0 0114 33.833V31.5c0-.644.523-1.167 1.167-1.167H17.5c.644 0 1.167.523 1.167 1.167v2.333zm0-8.166c0 .644-.523 1.166-1.167 1.166h-2.333A1.167 1.167 0 0114 25.667v-2.334c0-.644.523-1.166 1.167-1.166H17.5c.644 0 1.167.522 1.167 1.166v2.334zm0-8.167c0 .644-.523 1.167-1.167 1.167h-2.333A1.167 1.167 0 0114 17.5v-2.333c0-.645.523-1.167 1.167-1.167H17.5c.644 0 1.167.522 1.167 1.167V17.5zm8.166 16.333c0 .645-.522 1.167-1.166 1.167h-2.334a1.167 1.167 0 01-1.166-1.167V31.5c0-.644.522-1.167 1.166-1.167h2.334c.644 0 1.166.523 1.166 1.167v2.333zm0-8.166c0 .644-.522 1.166-1.166 1.166h-2.334a1.167 1.167 0 01-1.166-1.166v-2.334c0-.644.522-1.166 1.166-1.166h2.334c.644 0 1.166.522 1.166 1.166v2.334zm0-8.167c0 .644-.522 1.167-1.166 1.167h-2.334a1.167 1.167 0 01-1.166-1.167v-2.333c0-.645.522-1.167 1.166-1.167h2.334c.644 0 1.166.522 1.166 1.167V17.5zM4.667 4.667H28V10.5H4.667V4.667zm63.449 36.684a2.333 2.333 0 10-3.3-3.3l-1.65 1.65 3.3 3.3 1.65-1.65z" fill="#CAE2FF"/><path d="M48.117 61.35L66.467 43l-3.301-3.3-18.35 18.35L42 64.167l6.117-2.817zm15.884-15.885l-3.3-3.3 3.3 3.3z" fill="#CAE2FF"/><path d="M26.833 42c-6.443 0-11.666 5.223-11.666 11.667 0 6.443 5.223 11.666 11.666 11.666 6.444 0 11.667-5.223 11.667-11.666-.007-6.44-5.226-11.66-11.667-11.667zm0 21a9.333 9.333 0 01-9.333-9.333 9.333 9.333 0 019.333-9.334 9.333 9.333 0 019.334 9.334A9.344 9.344 0 0126.833 63z" fill="#2054A2"/><path d="M59.5 67.667h-49v-28h18.667a3.5 3.5 0 003.5-3.5V7H45.5v14h14v16.333h2.333V19.35L47.15 4.667H32.667V3.5a3.5 3.5 0 00-3.5-3.5H3.5A3.5 3.5 0 000 3.5v32.667a3.5 3.5 0 003.5 3.5h4.667V70h53.666V53.667H59.5v14zM47.833 8.65L57.85 18.667H47.833V8.65zm-45.5 27.517V3.5c0-.644.523-1.167 1.167-1.167h25.667c.644 0 1.166.523 1.166 1.167v32.667c0 .644-.522 1.166-1.166 1.166H3.5a1.167 1.167 0 01-1.167-1.166z" fill="#2054A2"/><path d="M37.333 29.167h2.334V31.5h-2.334v-2.333zm4.667 0h14V31.5H42v-2.333zM37.333 24.5h2.334v2.333h-2.334V24.5zm4.667 0h14v2.333H42V24.5zm-4.667 9.333h2.334v2.334h-2.334v-2.334zm4.667 0h14v2.334H42v-2.334zM37.333 38.5h2.334v2.333h-2.334V38.5zm4.667 0h14v2.333H42V38.5zm-12.833-35H3.5v8.167h25.667V3.5zm-2.334 5.833h-21v-3.5h21v3.5zm-17.5 3.5H7a2.333 2.333 0 00-2.333 2.334V17.5A2.333 2.333 0 007 19.833h2.333a2.333 2.333 0 002.334-2.333v-2.333a2.333 2.333 0 00-2.334-2.334zM7 17.5v-2.333h2.333V17.5H7zm10.5-4.667h-2.333a2.333 2.333 0 00-2.334 2.334V17.5a2.333 2.333 0 002.334 2.333H17.5a2.334 2.334 0 002.333-2.333v-2.333a2.333 2.333 0 00-2.333-2.334zM15.167 17.5v-2.333H17.5V17.5h-2.333zm10.5-4.667h-2.334A2.333 2.333 0 0021 15.167V17.5a2.334 2.334 0 002.333 2.333h2.334A2.334 2.334 0 0028 17.5v-2.333a2.333 2.333 0 00-2.333-2.334zM23.333 17.5v-2.333h2.334V17.5h-2.334zm-14 3.5H7a2.333 2.333 0 00-2.333 2.333v2.334A2.333 2.333 0 007 28h2.333a2.333 2.333 0 002.334-2.333v-2.334A2.333 2.333 0 009.333 21zM7 25.667v-2.334h2.333v2.334H7zM17.5 21h-2.333a2.333 2.333 0 00-2.334 2.333v2.334A2.333 2.333 0 0015.167 28H17.5a2.334 2.334 0 002.333-2.333v-2.334A2.334 2.334 0 0017.5 21zm-2.333 4.667v-2.334H17.5v2.334h-2.333zM25.667 21h-2.334A2.333 2.333 0 0021 23.333v2.334A2.333 2.333 0 0023.333 28h2.334A2.333 2.333 0 0028 25.667v-2.334A2.333 2.333 0 0025.667 21zm-2.334 4.667v-2.334h2.334v2.334h-2.334zm-14 3.5H7A2.333 2.333 0 004.667 31.5v2.333A2.333 2.333 0 007 36.167h2.333a2.333 2.333 0 002.334-2.334V31.5a2.333 2.333 0 00-2.334-2.333zM7 33.833V31.5h2.333v2.333H7zm10.5-4.666h-2.333a2.333 2.333 0 00-2.334 2.333v2.333a2.333 2.333 0 002.334 2.334H17.5a2.333 2.333 0 002.333-2.334V31.5a2.334 2.334 0 00-2.333-2.333zm-2.333 4.666V31.5H17.5v2.333h-2.333zm10.5-4.666h-2.334A2.334 2.334 0 0021 31.5v2.333a2.333 2.333 0 002.333 2.334h2.334A2.333 2.333 0 0028 33.833V31.5a2.334 2.334 0 00-2.333-2.333zm-2.334 4.666V31.5h2.334v2.333h-2.334zm45.607 3.393a3.583 3.583 0 00-4.948 0l-20 20a1.182 1.182 0 00-.234.337L40.94 63.68a1.166 1.166 0 001.548 1.547l6.116-2.816c.125-.058.239-.136.337-.234l19.998-20a3.5 3.5 0 000-4.95zM47.438 60.377l-3.057 1.408 1.408-3.056 14.912-14.913 1.65 1.65-14.913 14.911zM64.004 43.81l-1.65-1.649.817-.817 1.65 1.65-.817.816zm3.29-3.29l-.824.825-1.65-1.65.826-.824a1.193 1.193 0 011.649 0 1.167 1.167 0 010 1.65z" fill="#2054A2"/><path fill-rule="evenodd" clip-rule="evenodd" d="M25.816 57.534h2.413V55.7h-2.413v-.575h1.98c1.32 0 2.35-.315 3.089-.944.743-.63 1.115-1.488 1.115-2.576 0-.705-.174-1.332-.523-1.882a3.364 3.364 0 00-1.457-1.276c-.628-.297-1.356-.446-2.185-.446H23.54v5.288H22v1.836h1.54v.575H22v1.835h1.54V59h2.276v-1.466zm1.966-4.245h-1.966v-3.446h2.049c.572.005 1.02.172 1.343.499.324.322.486.748.486 1.277 0 1.113-.638 1.67-1.912 1.67z" fill="#275BA8"/></svg>