<svg width="70" height="70" fill="none" xmlns="http://www.w3.org/2000/svg"><path d="M52.938 14.031h8.75L50.75 3.094v8.75a2.187 2.187 0 002.188 2.187zM16.844 62.156V43.562h-8.75v18.594h8.749z" fill="#CAE2FF"/><path d="M62.464 13.255L51.527 2.317A1.13 1.13 0 0050.75 2H13.562a1.094 1.094 0 00-1.093 1.094v39.375H8.094A1.094 1.094 0 007 43.562v18.594a1.094 1.094 0 001.094 1.094h4.375v3.281a1.094 1.094 0 001.094 1.094h48.124a1.093 1.093 0 001.094-1.094v-52.5a1.13 1.13 0 00-.317-.776zM51.844 5.73l7.208 7.207h-6.114a1.093 1.093 0 01-1.094-1.093V5.73zM9.187 61.063V44.656h6.563v16.407H9.187zm51.407 4.374H14.656V63.25h2.188a1.093 1.093 0 001.093-1.094v-.317a14.081 14.081 0 006.158 1.411h12.436a3.274 3.274 0 002.855-4.89 2.95 2.95 0 00.547-.437 3.25 3.25 0 00.973-2.33 3.209 3.209 0 00-.426-1.607c.198-.124.382-.27.547-.438a3.25 3.25 0 00.973-2.33 3.209 3.209 0 00-.427-1.607c.2-.124.383-.27.547-.438a3.29 3.29 0 00.963-2.614 3.36 3.36 0 00-3.39-2.996h-9.724v-5.47a3.291 3.291 0 00-3.282-3.28H24.5a1.093 1.093 0 00-1.094 1.093v3.282a5.47 5.47 0 01-5.468 5.468v-1.093a1.093 1.093 0 00-1.094-1.094h-2.188V4.187h35v7.657a3.291 3.291 0 003.282 3.281h7.656v50.313zM28.875 45.75h10.817a1.194 1.194 0 011.214.995 1.077 1.077 0 01-.339.875 1.014 1.014 0 01-.755.318H38.72a1.093 1.093 0 100 2.187 1.093 1.093 0 011.007 1.518 1.037 1.037 0 01-.253.352 1.014 1.014 0 01-.754.318h-1.094a1.093 1.093 0 100 2.187 1.093 1.093 0 011.007 1.518 1.04 1.04 0 01-.252.352 1.014 1.014 0 01-.755.318h-1.094a1.093 1.093 0 100 2.187 1.093 1.093 0 011.007 1.518 1.037 1.037 0 01-.252.352 1.014 1.014 0 01-.755.318H24.095a11.96 11.96 0 01-6.157-1.696V46.844a7.665 7.665 0 007.656-7.657V37h1.093a1.093 1.093 0 011.094 1.094v6.562a1.094 1.094 0 001.094 1.094z" fill="#275BA8"/><path d="M28.875 10.75h17.5a1.093 1.093 0 100-2.188h-17.5a1.094 1.094 0 100 2.188zm28.438 45.938H44.187a1.093 1.093 0 100 2.187h13.126a1.093 1.093 0 100-2.188zm-2.188-21.875H33.25a1.093 1.093 0 100 2.187h21.875a1.093 1.093 0 100-2.188zm1.094 5.468a1.094 1.094 0 00-1.094-1.093H33.25a1.093 1.093 0 100 2.187h21.875a1.093 1.093 0 001.094-1.094zM20.125 19.5h35a1.093 1.093 0 100-2.188h-35a1.093 1.093 0 100 2.188zm0 4.375h35a1.093 1.093 0 100-2.188h-35a1.093 1.093 0 100 2.188zm0 4.375h35a1.093 1.093 0 100-2.188h-35a1.093 1.093 0 100 2.188zm36.094 3.281a1.094 1.094 0 00-1.094-1.093h-35a1.093 1.093 0 100 2.187h35a1.093 1.093 0 001.094-1.094zm1.093 21.875h-.64l-1.867-1.867a1.094 1.094 0 00-1.75.285l-.794 1.582h-1.093c.44-.573.679-1.277.676-2v-.28a3.19 3.19 0 00-5.924-1.64l-2.67 4.45a1.093 1.093 0 101.875 1.127l2.672-4.452a1.001 1.001 0 011.86.516v.279a1.094 1.094 0 01-.321.774l-1.547 1.547a1.094 1.094 0 00.773 1.867h4.375a1.093 1.093 0 00.985-.605l.414-.83 1.115 1.114c.204.204.48.32.768.32h1.093a1.094 1.094 0 100-2.187z" fill="#275BA8"/></svg>