<svg width="70" height="70" fill="none" xmlns="http://www.w3.org/2000/svg"><path d="M68.833 22.167v-5.834a15.102 15.102 0 01-1.166 5.834h1.166zM14 16.333a1.167 1.167 0 11-2.333 0 1.167 1.167 0 012.333 0z" fill="#CAE2FF"/><path d="M38.5 16.333c0 2.003.397 3.985 1.167 5.834h-38.5v-9.334A2.34 2.34 0 013.5 10.5h36.167a15.169 15.169 0 00-1.167 5.833z" fill="#CAE2FF"/><path d="M19.833 16.333a1.167 1.167 0 11-2.333 0 1.167 1.167 0 012.333 0zm-11.666 0a1.167 1.167 0 11-2.334 0 1.167 1.167 0 012.334 0zM38.5 45.5a2.334 2.334 0 00-2.333-2.333H3.5A2.333 2.333 0 001.167 45.5v2.333H38.5V45.5zm-37.333 7v14A2.333 2.333 0 003.5 68.833h32.667A2.333 2.333 0 0038.5 66.5v-14H1.167zm28 12.833a3.5 3.5 0 01-3.5-3.5 3.5 3.5 0 11-7 0 3.5 3.5 0 017 0 3.5 3.5 0 113.5 3.5z" fill="#CAE2FF"/><path d="M25.667 61.833a3.5 3.5 0 11-7 0 3.5 3.5 0 017 0zm7 0a3.5 3.5 0 11-7 0 3.5 3.5 0 017 0zm21-60.666c-8.377 0-15.167 6.79-15.167 15.166 0 8.377 6.79 15.167 15.167 15.167 8.376 0 15.166-6.79 15.166-15.167 0-8.376-6.79-15.166-15.166-15.166zm-7 39.666a1.167 1.167 0 11-2.334 0 1.167 1.167 0 012.334 0zm0 7a1.167 1.167 0 11-2.334 0 1.167 1.167 0 012.334 0zm0 7a1.167 1.167 0 11-2.334 0 1.167 1.167 0 012.334 0z" fill="#CAE2FF"/><path d="M9.333 16.333a2.333 2.333 0 11-4.667 0 2.333 2.333 0 014.667 0zm5.834 0a2.334 2.334 0 11-4.667 0 2.334 2.334 0 014.667 0zm5.833 0a2.333 2.333 0 11-4.667 0 2.333 2.333 0 014.667 0zM36.167 42H3.5A3.5 3.5 0 000 45.5v21A3.5 3.5 0 003.5 70h32.667a3.5 3.5 0 003.5-3.5v-21a3.5 3.5 0 00-3.5-3.5zM2.333 49h35v2.333h-35V49zm35 17.5c0 .644-.522 1.167-1.166 1.167H3.5A1.167 1.167 0 012.333 66.5V53.667h35V66.5zm-35-19.833V45.5c0-.644.523-1.167 1.167-1.167h32.667c.644 0 1.166.523 1.166 1.167v1.167h-35z" fill="#2054A2"/><path d="M22.167 66.5a4.638 4.638 0 003.5-1.612 4.667 4.667 0 100-6.11 4.657 4.657 0 10-3.5 7.722zm7-7a2.333 2.333 0 110 4.667 2.333 2.333 0 010-4.667zm-7 0a2.333 2.333 0 110 4.667 2.333 2.333 0 010-4.667zm-17.5 2.333H14v2.334H4.667v-2.334z" fill="#2054A2"/><path d="M53.667 0a16.333 16.333 0 00-14.735 9.333H3.5a3.5 3.5 0 00-3.5 3.5v28h2.333v-17.5h36.599a16.295 16.295 0 0028.735 1.37v37.13c0 .645-.523 1.167-1.167 1.167H42v2.333h24.5a3.5 3.5 0 003.5-3.5v-45.5C69.99 7.317 62.683.01 53.667 0zM2.333 21v-8.167c0-.644.523-1.166 1.167-1.166h34.522a16.165 16.165 0 000 9.333H2.333zm51.334 9.333c-7.732 0-14-6.268-14-14s6.268-14 14-14 14 6.268 14 14c-.009 7.729-6.272 13.992-14 14z" fill="#2054A2"/><path d="M62.54 9.309L50.167 21.684l-5.776-5.775-1.649 1.65 7.425 7.424L64.19 10.96l-1.65-1.651zM50.167 39.667h14V42h-14v-2.333zm-2.334 1.166a2.333 2.333 0 11-4.666 0 2.333 2.333 0 014.666 0zm2.334 5.834h14V49h-14v-2.333zm-2.334 1.166a2.333 2.333 0 11-4.666 0 2.333 2.333 0 014.666 0zm2.334 5.834h14V56h-14v-2.333zm-2.334 1.166a2.333 2.333 0 11-4.666 0 2.333 2.333 0 014.666 0zM8.167 29.167H10.5V31.5H8.167v-2.333zm4.666 0h21V31.5h-21v-2.333zm-4.666 4.666h25.666v2.334H8.167v-2.334z" fill="#2054A2"/></svg>