<svg width="70" height="70" fill="none" xmlns="http://www.w3.org/2000/svg"><path d="M19.833 1.167v67.666h9.334V52.5h11.666v16.333h9.334V1.167H19.833zm18.667 7h4.667v4.666H38.5V8.167zm0 9.333h4.667v4.667H38.5V17.5zm0 9.333h4.667V31.5H38.5v-4.667zm0 9.334h4.667v4.666H38.5v-4.666zm-11.667-28H31.5v4.666h-4.667V8.167zm0 9.333H31.5v4.667h-4.667V17.5zm0 9.333H31.5V31.5h-4.667v-4.667zm0 9.334H31.5v4.666h-4.667v-4.666zm23.334-16.334v49h5.297a9.729 9.729 0 01-.63-3.5c0-3.861 2.088-7 4.666-7 2.578 0 4.667 3.139 4.667 7a9.729 9.729 0 01-.63 3.5h5.296v-49H50.167zm11.666 30.334h-4.666V45.5h4.666v4.667zm0-9.334h-4.666v-4.666h4.666v4.666zm0-9.333h-4.666v-4.667h4.666V31.5z" fill="#CAE2FF"/><path d="M1.167 19.833v47.834h18.666V19.833H1.167zm7 42c-2.577 0-4.667-3.656-4.667-8.166S5.59 45.5 8.167 45.5s4.666 3.656 4.666 8.167c0 4.51-2.09 8.166-4.666 8.166zm4.666-21H8.167v-4.666h4.666v4.666zm0-9.333H8.167v-4.667h4.666V31.5z" fill="#CAE2FF"/><path d="M51.333 18.667V0H18.667v18.667H0v28h2.333V21h16.334v46.667H9.333v-4.848C12.027 61.977 14 58.26 14 53.667c0-5.234-2.567-9.334-5.833-9.334-3.267 0-5.834 4.1-5.834 9.334 0 4.593 1.973 8.31 4.667 9.152v4.848H0V70h70V18.667H51.333zm-46.666 35c0-4.126 1.844-7 3.5-7 1.655 0 3.5 2.874 3.5 7 0 4.125-1.845 7-3.5 7-1.656 0-3.5-2.875-3.5-7zm25.666 14v-14h9.334v14h-9.334zm18.667 0h-7V51.333H28v16.334h-7V2.333h28v65.334zm7-2.334c0-3.161 1.603-5.833 3.5-5.833s3.5 2.672 3.5 5.833a8.891 8.891 0 01-.308 2.334h-6.384A8.891 8.891 0 0156 65.333zm11.667 2.334h-2.585c.164-.767.249-1.55.251-2.334 0-4.579-2.567-8.166-5.833-8.166s-5.833 3.587-5.833 8.166c.002.785.087 1.567.252 2.334h-2.586V21h16.334v46.667z" fill="#2054A2"/><path d="M23.333 46.667h23.334V49H23.333v-2.333zM32.667 7h-7v7h7V7zm-2.334 4.667H28V9.333h2.333v2.334zm14-4.667h-7v7h7V7zM42 11.667h-2.333V9.333H42v2.334zm-9.333 4.666h-7v7h7v-7zM30.333 21H28v-2.333h2.333V21zm14-4.667h-7v7h7v-7zM42 21h-2.333v-2.333H42V21zm-9.333 4.667h-7v7h7v-7zm-2.334 4.666H28V28h2.333v2.333zm14-4.666h-7v7h7v-7zM42 30.333h-2.333V28H42v2.333zM32.667 35h-7v7h7v-7zm-2.334 4.667H28v-2.334h2.333v2.334zM14 25.667H7v7h7v-7zm-2.333 4.666H9.333V28h2.334v2.333zM7 42h7v-7H7v7zm2.333-4.667h2.334v2.334H9.333v-2.334zm35-2.333h-7v7h7v-7zM42 39.667h-2.333v-2.334H42v2.334zm21-14h-7v7h7v-7zm-2.333 4.666h-2.334V28h2.334v2.333zM63 35h-7v7h7v-7zm-2.333 4.667h-2.334v-2.334h2.334v2.334zM63 44.333h-7v7h7v-7zM60.667 49h-2.334v-2.333h2.334V49z" fill="#2054A2"/></svg>