<svg width="70" height="70" fill="none" xmlns="http://www.w3.org/2000/svg"><path d="M25.667 1.167v14h-14v28h46.666v-42H25.667zM51.333 31.5H18.667V19.833h32.666V31.5zM11.667 43.167h-10.5v7a4.667 4.667 0 004.666 4.666h58.334a4.667 4.667 0 004.666-4.666v-7H11.667zM35 51.333a2.334 2.334 0 110-4.667 2.334 2.334 0 010 4.667zm-8.167 3.5h16.334v7H26.833v-7z" fill="#CAE2FF"/><path d="M18.667 61.833h32.666a2.333 2.333 0 012.334 2.334V70H16.333v-5.833a2.333 2.333 0 012.334-2.334z" fill="#CAE2FF"/><path d="M29.167 9.333H31.5v2.334h-2.333V9.333zm4.666 0H52.5v2.334H33.833V9.333zM29.167 14H31.5v2.333h-2.333V14zm4.666 0H52.5v2.333H33.833V14zM17.5 32.667h35v-14h-35v14zM19.833 21h30.334v9.333H19.833V21z" fill="#275BA8"/><path d="M64.167 7h-2.334v2.333h2.334a3.5 3.5 0 013.5 3.5V42H59.5V0H25.184L10.5 14.684V42H2.333V12.833a3.5 3.5 0 013.5-3.5H14V7H5.833A5.84 5.84 0 000 12.833v37.334A5.84 5.84 0 005.833 56h19.834v4.667h-7a3.5 3.5 0 00-3.5 3.5V70h39.666v-5.833a3.5 3.5 0 00-3.5-3.5H49V63h2.333c.645 0 1.167.522 1.167 1.167v3.5h-35v-3.5c0-.645.522-1.167 1.167-1.167h28v-2.333h-2.334V56h19.834A5.84 5.84 0 0070 50.167V12.833A5.84 5.84 0 0064.167 7zM24.5 3.983V14H14.483L24.5 3.983zm-11.667 12.35h14v-14h30.334V42H12.833V16.333zM42 60.667H28V56h14v4.667zm22.167-7H5.833a3.5 3.5 0 01-3.5-3.5v-5.834h65.334v5.834a3.5 3.5 0 01-3.5 3.5z" fill="#275BA8"/><path d="M35 45.5a3.5 3.5 0 100 7 3.5 3.5 0 000-7zm0 4.667a1.167 1.167 0 110-2.334 1.167 1.167 0 010 2.334zM17.5 35h2.333v2.333H17.5V35zm4.667 0H52.5v2.333H22.167V35z" fill="#275BA8"/></svg>