<svg width="70" height="70" fill="none" xmlns="http://www.w3.org/2000/svg"><g clip-path="url(#clip0)"><path d="M12.833 39.257v.176l10.5-5.6-10.5 5.424zm10.5-5.424l9.334 4.979v-.158l-9.334-4.82z" fill="#CAE2FF"/><path d="M32.667 38.812l3.791 2.021h.428l-4.22-2.18v.159z" fill="#CAE2FF"/><path d="M36.458 40.833l-3.791-2.021-9.334-4.979-10.5 5.6-7 3.734V63H10.5V46.667h7V63h23.333V43.167l-4.375-2.334zm-15.458 0a2.334 2.334 0 114.667 0 2.334 2.334 0 01-4.667 0zM36.167 56h-14v-7h14v7z" fill="#CAE2FF"/><path d="M65.333 64.167H63V7H31.5V4.667h33.833v59.5z" fill="#275BA8"/><path d="M70 59.5h-2.333V2.333h-31.5V0H70v59.5z" fill="#275BA8"/><path d="M26.35 9.333L11.667 24.017v8.65H14v-7h14v-14h30.333v56H14v-2.334h-2.333V70h49V9.333H26.35zm-10.7 14l10.017-10.017v10.017H15.65z" fill="#275BA8"/><path d="M42 64.167v-19.39a3.159 3.159 0 004.667-2.8 3.208 3.208 0 00-1.615-2.763L23.333 27.85 1.563 39.247A3.186 3.186 0 000 41.98v.012a3.141 3.141 0 001.597 2.754c.485.28 1.033.427 1.591.429a3.026 3.026 0 001.479-.391v19.383H42zM2.756 42.72a.818.818 0 01-.423-.728v-.012a.828.828 0 01.364-.7l20.636-10.796L43.92 41.255a.85.85 0 01.414.737.818.818 0 01-.422.728.86.86 0 01-.9-.035L23.334 32.52 3.6 42.715a.816.816 0 01-.843.005zM7 61.833v-18.25l16.333-8.436 16.334 8.435v18.251h-21V45.5H9.333v16.333H7zm4.667 0v-14h4.666v14h-4.666z" fill="#275BA8"/><path d="M23.334 44.333a3.5 3.5 0 100-7 3.5 3.5 0 000 7zm0-4.666a1.167 1.167 0 110 2.333 1.167 1.167 0 010-2.333zM21 57.167h16.333v-9.334H21v9.334zm2.333-7H35v4.666H23.333v-4.666zm9.334-31.5H35V21h-2.333v-2.333zm4.667 0h16.333V21H37.333v-2.333zm-4.667 4.666H35v2.334h-2.333v-2.334zm4.667 0h16.333v2.334H37.333v-2.334zm-4.667 7h18.666v9.334H49V42h4.667V28h-21v2.333zm16.333 14h4.667v2.334H49v-2.334z" fill="#275BA8"/></g><defs><clipPath id="clip0"><path fill="#fff" d="M0 0h70v70H0z"/></clipPath></defs></svg>