<svg width="36" height="36" fill="none" xmlns="http://www.w3.org/2000/svg"><path d="M34.768 9.742L25.597.212a.693.693 0 00-.5-.212H11.429a2.777 2.777 0 00-2.774 2.773v9.689h-5.54c-1.144 0-2.075.93-2.075 2.075v10.388c0 1.144.93 2.075 2.075 2.075h5.54v6.232A2.775 2.775 0 0011.428 36h20.76a2.774 2.774 0 002.774-2.767v-23.01a.693.693 0 00-.194-.48zM25.27 1.87l7.53 7.823h-7.53V1.87zM3.114 25.615a.691.691 0 01-.69-.69V14.537c0-.381.31-.69.69-.69H21.81c.381 0 .691.309.691.69v10.388c0 .38-.31.69-.69.69H3.113zm30.463 7.618c0 .762-.623 1.382-1.39 1.382H11.428c-.766 0-1.39-.62-1.39-1.383V27H21.81c1.145 0 2.076-.93 2.076-2.075V14.537a2.078 2.078 0 00-2.076-2.075H10.04V2.773a1.39 1.39 0 011.39-1.388h12.456v9c0 .382.31.692.692.692h9v22.156z" fill="#275BA8"/><path d="M17.34 19.658v1.002h1.375v.754a2.6 2.6 0 01-.65.36 2.068 2.068 0 01-.758.147c-.508 0-.919-.176-1.233-.53-.313-.352-.47-.881-.47-1.587 0-.655.155-1.148.464-1.48.31-.334.727-.5 1.252-.5.346 0 .635.085.866.254.231.169.389.4.472.691l1.193-.223c-.119-.546-.386-.974-.801-1.284-.415-.31-.992-.464-1.73-.464-.568 0-1.043.099-1.424.296-.5.257-.88.626-1.14 1.107-.26.482-.39 1.032-.39 1.651 0 .571.117 1.099.35 1.584.232.486.58.859 1.042 1.12.463.261 1.005.392 1.627.392.49 0 .973-.093 1.45-.279.477-.185.842-.399 1.093-.642v-2.37H17.34zm-4.097-2.088a1.56 1.56 0 00-.856-.582c-.221-.06-.697-.089-1.427-.089H9.033v5.947h1.2v-2.243h.783c.544 0 .96-.029 1.246-.085.21-.046.418-.14.622-.282.205-.142.373-.338.505-.586.133-.25.2-.556.2-.921 0-.473-.116-.86-.346-1.158zm-1.028 1.638a.789.789 0 01-.375.292c-.16.062-.476.093-.95.093h-.657v-1.688h.58c.433 0 .721.014.864.04a.83.83 0 01.483.264.77.77 0 01.19.536.8.8 0 01-.135.463zM6.558 16.9v3.84c0 .482-.055.8-.166.952-.111.153-.3.23-.568.23-.265 0-.463-.108-.592-.321-.087-.14-.137-.381-.15-.722l-1.132.13c.002.635.162 1.117.478 1.446.317.328.768.493 1.355.493.5 0 .903-.105 1.21-.315.305-.21.516-.487.632-.834.086-.264.13-.643.13-1.135v-3.765H6.558z" fill="#275BA8"/></svg>