<svg width="36" height="36" fill="none" xmlns="http://www.w3.org/2000/svg"><path d="M34.768 9.742L25.597.212a.693.693 0 00-.5-.212H11.429a2.777 2.777 0 00-2.774 2.773v9.689h-5.54c-1.144 0-2.075.93-2.075 2.075v10.388c0 1.144.93 2.075 2.075 2.075h5.54v6.232A2.775 2.775 0 0011.428 36h20.76a2.774 2.774 0 002.774-2.767v-23.01a.693.693 0 00-.194-.48zM25.27 1.87l7.53 7.823h-7.53V1.87zM3.114 25.615a.691.691 0 01-.69-.69V14.537c0-.381.31-.69.69-.69H21.81c.381 0 .691.309.691.69v10.388c0 .38-.31.69-.691.69H3.114zm30.463 7.618c0 .762-.623 1.382-1.39 1.382H11.428c-.766 0-1.39-.62-1.39-1.383V27H21.81c1.145 0 2.076-.93 2.076-2.075V14.537a2.078 2.078 0 00-2.076-2.075H10.04V2.773a1.39 1.39 0 011.39-1.388h12.456v9c0 .382.31.692.692.692h9v22.156z" fill="#275BA8"/><path d="M20.014 20.167a1.671 1.671 0 00-.657-.604c-.28-.148-.712-.29-1.296-.428-.584-.138-.952-.27-1.104-.398a.457.457 0 01-.178-.36c0-.155.063-.278.19-.37.198-.143.471-.215.82-.215.338 0 .592.067.76.2.17.135.28.354.331.66l1.2-.053c-.018-.546-.216-.983-.593-1.31-.378-.327-.94-.49-1.686-.49-.457 0-.847.068-1.17.206-.323.138-.57.339-.742.603a1.53 1.53 0 00-.258.85c0 .47.183.869.548 1.196.26.233.71.429 1.355.588.5.125.82.211.96.26.207.073.35.159.433.257a.542.542 0 01.124.36c0 .218-.098.41-.294.573-.197.164-.488.246-.875.246-.365 0-.655-.092-.87-.276-.215-.184-.357-.472-.428-.864l-1.168.114c.078.665.32 1.171.722 1.519.403.347.98.52 1.732.52.517 0 .948-.072 1.294-.216a1.75 1.75 0 001.087-1.62c0-.377-.079-.692-.237-.948zm-8.135 1.677v-4.896h-1.201v5.898h4.186v-1.002H11.88zm-3.882-2.056l1.85-2.889H8.454L7.287 18.81 6.094 16.9H4.691l1.841 2.843L4.5 22.846h1.44l1.323-2.056 1.318 2.056h1.448l-2.032-3.058z" fill="#275BA8"/></svg>