<svg width="36" height="36" fill="none" xmlns="http://www.w3.org/2000/svg"><path d="M34.769 9.742L25.597.212A.693.693 0 0025.098 0h-13.67a2.777 2.777 0 00-2.774 2.773v9.689h-5.54c-1.144 0-2.075.93-2.075 2.075v10.388A2.078 2.078 0 003.115 27h5.54v6.232A2.775 2.775 0 0011.428 36h20.759a2.774 2.774 0 002.774-2.767v-23.01a.693.693 0 00-.193-.48zm-9.5-7.873l7.53 7.823h-7.53V1.87zM3.116 25.615a.691.691 0 01-.691-.69V14.537c0-.381.31-.69.69-.69H21.81c.38 0 .69.309.69.69v10.388c0 .38-.31.69-.69.69H3.115zm30.462 7.618c0 .762-.623 1.382-1.39 1.382H11.43c-.767 0-1.39-.62-1.39-1.383V27h11.77c1.145 0 2.076-.93 2.076-2.075V14.537a2.078 2.078 0 00-2.075-2.075H10.04V2.773a1.39 1.39 0 011.389-1.388h12.456v9c0 .382.31.692.692.692h9v22.156z" fill="#275BA8"/><path d="M9.315 17.57a1.56 1.56 0 00-.856-.581c-.222-.06-.697-.09-1.428-.09H5.104v5.947h1.201v-2.243h.783c.544 0 .959-.028 1.246-.085.21-.046.418-.14.622-.282.204-.142.373-.338.505-.586.133-.25.199-.556.199-.921 0-.473-.115-.86-.345-1.158zm-1.028 1.638a.788.788 0 01-.375.292c-.16.062-.476.093-.95.093h-.657v-1.688h.58c.433 0 .721.014.864.041a.83.83 0 01.483.264c.127.14.19.319.19.535a.8.8 0 01-.135.463zm7.145-.684a2.593 2.593 0 00-.568-.963 1.988 1.988 0 00-.896-.548c-.26-.076-.637-.114-1.132-.114h-2.194v5.947h2.26c.443 0 .797-.042 1.062-.126.354-.113.635-.271.844-.474.276-.268.488-.618.636-1.05.122-.355.183-.777.183-1.266 0-.558-.065-1.026-.195-1.406zm-1.168 2.442c-.081.267-.186.458-.314.574-.129.116-.29.199-.485.248-.149.037-.39.056-.726.056h-.897v-3.939h.54c.49 0 .818.02.986.057.224.049.41.142.555.28.146.138.26.33.341.576.081.246.122.6.122 1.059 0 .46-.04.823-.122 1.09zm6.466-3.061V16.9h-4.077v5.947h1.201V20.32h2.483v-1.006h-2.483v-1.408h2.876z" fill="#275BA8"/></svg>